<svg width="59" height="49" viewBox="0 0 59 49" fill="none" xmlns="http://www.w3.org/2000/svg">
<g clip-path="url(#clip0)">
<path d="M50.6926 18.6143C49.2332 15.0665 46.8828 11.9688 43.8758 9.62971C40.8688 7.29066 37.3101 5.79202 33.5544 5.28313C29.7986 4.77424 25.977 5.27288 22.4704 6.72936C18.9638 8.18583 15.8946 10.5493 13.5688 13.5842C11.2429 16.619 9.74159 20.2194 9.21443 24.0263C8.68727 27.8333 9.15268 31.714 10.5643 35.2816C11.9759 38.8492 14.2843 41.9792 17.2597 44.3597C20.235 46.7401 23.7732 48.2878 27.5218 48.8486C27.0307 47.0535 26.5313 45.0693 26.091 42.9649C27.3717 43.8078 28.7196 44.5405 30.1207 45.1552V45.1552C30.1207 45.1552 30.2223 47.0105 30.3578 49.0805C31.8717 49.107 33.3841 48.9717 34.87 48.6768C34.8316 48.461 34.8316 48.2399 34.87 48.024C35.1155 46.4178 35.7928 43.5233 35.9283 41.6594C36.9046 40.7328 37.7329 39.6577 38.3833 38.4727V38.4727L38.3325 38.8507C37.8669 42.5097 36.8934 46.4178 36.3008 47.5001C36.1089 47.8583 35.8728 48.1903 35.5981 48.4879C38.6625 47.7585 41.534 46.3616 44.0133 44.3942C46.4926 42.4267 48.5206 39.9357 49.9565 37.0938C51.3924 34.2519 52.202 31.1272 52.3291 27.9362C52.4562 24.7453 51.8978 21.5645 50.6926 18.6143V18.6143ZM49.4481 21.8696C49.0756 22.239 48.3052 22.4881 48.1782 21.3715C48.0512 20.2549 48.0174 19.4732 48.0174 19.4732C48.0174 19.4732 46.3835 16.5271 45.7739 16.4927C45.1644 16.4584 40.8384 19.4732 39.6955 20.7874C38.705 21.8954 38.5103 21.8181 38.5103 23.7679C38.5103 25.2366 38.6966 30.7853 38.595 35.0284L31.6954 36.8923C29.5267 37.5238 27.3213 38.0172 25.0921 38.3697L24.2455 33.3621H24.127L21.9513 22.05C21.9513 22.05 18.7258 20.8132 17.5406 20.4782C16.9841 20.2312 16.3696 20.1508 15.7695 20.2467C15.1695 20.3426 14.609 20.6107 14.1543 21.0193C13.6904 21.4314 13.3194 21.9401 13.0667 22.5108C12.814 23.0814 12.6854 23.7006 12.6897 24.3262C12.8687 24.7254 13.0049 25.1429 13.0961 25.5716C13.1384 25.9839 12.0802 25.941 11.4029 25.941C10.7257 25.941 10.6241 24.7041 11.1574 23.2525C11.5735 22.1363 12.0893 21.0611 12.6982 20.0401C13.1562 19.1281 13.747 18.2913 14.4506 17.5578C14.4506 17.5578 14.5691 17.2658 15.5088 17.3517C16.4485 17.4376 21.6719 17.721 21.6719 17.721L21.7142 15.7712C27.3917 14.9759 33.1177 14.5913 38.8489 14.6203C38.8489 15.1442 38.8489 15.6682 38.8489 16.1921C41.0198 15.187 43.3573 14.6043 45.7401 14.4743C45.8676 14.471 45.9939 14.4999 46.1076 14.5584C46.2214 14.6168 46.3191 14.703 46.3919 14.8092C46.6798 15.1786 48.4322 17.386 48.6354 17.7038C49.2045 18.529 49.7219 19.3896 50.1846 20.2806C50.026 20.8448 49.7772 21.3787 49.4481 21.8611V21.8696Z" fill="#FDC305"/>
<path d="M47.7977 16.613C48.1956 17.1284 48.5427 17.5836 48.6443 17.721C49.2133 18.5462 49.7308 19.4068 50.1935 20.2978C50.0324 20.8434 49.7867 21.3596 49.4654 21.8267C49.0929 22.196 48.3226 22.4451 48.1956 21.3285C48.0686 20.2119 48.0178 19.4732 48.0178 19.4732C48.0178 19.4732 46.3839 16.5271 45.7744 16.4927C45.1648 16.4584 40.8388 19.4732 39.6959 20.7874C38.7055 21.8954 38.5107 21.8181 38.5107 23.7679C38.5107 25.0563 38.6547 29.4798 38.6208 33.4136C40.1531 33.5854 42.405 34.0149 43.0823 35.0284C43.0823 35.0284 42.8367 28.8613 49.694 32.0909C49.694 32.0909 49.9311 23.682 59.3958 25.8379C56.1783 22.0052 52.2341 18.8681 47.7977 16.613V16.613Z" fill="#F06351"/>
<path d="M38.8833 14.6203C38.9177 9.86074 38.521 5.10805 37.6981 0.422181C37.6981 0.422181 37.5711 -0.694427 36.9615 0.216038C36.4586 1.30449 36.1163 2.46214 35.9457 3.65175C32.3267 3.41616 28.6941 3.51391 25.0925 3.94379C24.3983 1.58174 23.2131 0.508074 22.6459 0.79152C22.0787 1.07497 22.011 3.60881 22.011 3.60881L21.7316 15.7712C27.4147 14.9751 33.1464 14.5905 38.8833 14.6203V14.6203Z" fill="#F06351"/>
<path d="M38.3916 38.4727C38.5016 37.5537 38.5609 36.334 38.5948 34.9855L31.6955 36.8494C29.5279 37.4953 27.3226 38.0031 25.0925 38.3697L26.0322 42.6643C26.0322 42.7588 26.0322 42.8533 26.0914 42.9478C27.372 43.7906 28.7199 44.5233 30.1209 45.138C32.1684 44.145 34.1186 42.9572 35.9451 41.5907V41.6422C36.917 40.7202 37.7423 39.6511 38.3916 38.4727V38.4727Z" fill="#E55645"/>
<path d="M27.0904 11.9318C27.0481 11.8459 27.937 12.5159 28.2841 12.722C28.6311 12.9282 28.8005 13.0828 28.8005 13.2288C28.8005 13.3748 28.5804 13.5209 28.2756 13.5209C27.9708 13.5209 27.4968 13.4178 27.4291 13.2975C27.3613 13.1773 27.937 13.2975 28.2248 13.2975H28.4703C27.9491 12.9107 27.4846 12.4509 27.0904 11.9318Z" fill="black"/>
<path d="M33.4397 12.0263C33.4397 12.0263 32.5932 13.1257 32.517 13.1773C32.4408 13.2288 32.3731 13.4693 32.6778 13.4264C33.0277 13.3734 33.373 13.293 33.7106 13.1859C33.8037 13.1343 33.7699 13.0141 33.609 13.0313C33.4482 13.0484 33.0334 13.0742 32.7625 13.1257L33.482 12.0349C33.482 12.0349 33.5074 11.9318 33.4397 12.0263Z" fill="black"/>
<path d="M30.7815 17.2744C31.1739 17.099 31.4982 16.797 31.7042 16.4154C31.9412 15.8486 31.7042 15.6338 31.3317 15.5565C30.8193 15.4616 30.2904 15.5659 29.8503 15.8486C29.5201 16.1664 29.5624 16.4756 29.8503 16.7075C30.1362 16.935 30.449 17.1254 30.7815 17.2744V17.2744Z" fill="black"/>
<path d="M30.4766 18.3566C30.3794 18.5514 30.2474 18.7262 30.0872 18.872C29.8461 19.0688 29.5498 19.1831 29.2407 19.1984C28.7746 19.2448 28.3086 19.1097 27.937 18.8204C27.7664 18.7192 27.6145 18.5884 27.4883 18.4339C27.4037 18.3404 27.2996 18.267 27.1836 18.2192C27.1836 18.2192 27.8185 21.7494 29.3592 22.3163C30.8999 22.8832 31.1877 21.6635 31.23 21.3371C31.2816 20.3596 31.0395 19.3891 30.5359 18.5542C30.5359 18.2965 30.5189 18.4683 30.4766 18.3566Z" fill="#F06351"/>
<path d="M29.0375 19.3358C28.6413 19.278 28.2608 19.1394 27.9189 18.9283C27.577 18.7172 27.2808 18.438 27.0481 18.1075C27.0273 18.0839 27.0158 18.0533 27.0158 18.0216C27.0158 17.9899 27.0273 17.9594 27.0481 17.9357C27.0591 17.9243 27.0723 17.9152 27.0869 17.909C27.1014 17.9028 27.117 17.8997 27.1328 17.8997C27.1485 17.8997 27.1641 17.9028 27.1787 17.909C27.1932 17.9152 27.2064 17.9243 27.2174 17.9357C27.4269 18.2339 27.6927 18.487 27.9993 18.6801C28.3059 18.8733 28.6473 19.0027 29.0036 19.0609C29.2855 19.0395 29.5583 18.9504 29.7997 18.8011C30.041 18.6517 30.244 18.4464 30.3919 18.202L30.5104 18.0388L30.5951 18.2278C30.5951 18.2278 30.9168 18.8806 31.4416 18.9149C31.9665 18.9493 32.339 18.5542 32.8215 17.8069C32.8394 17.7796 32.8674 17.7606 32.8991 17.7542C32.9309 17.7477 32.9638 17.7543 32.9908 17.7726C33.0177 17.7908 33.0364 17.8191 33.0428 17.8513C33.0491 17.8835 33.0426 17.917 33.0246 17.9443C32.4603 18.7861 31.927 19.1898 31.4247 19.1554C31.2306 19.1293 31.0446 19.0595 30.8806 18.951C30.7165 18.8425 30.5785 18.6981 30.4766 18.5284C30.311 18.7631 30.0958 18.9573 29.8469 19.097C29.5979 19.2367 29.3214 19.3182 29.0375 19.3358Z" fill="black"/>
<path d="M30.6967 30.897C32.4499 30.897 33.8712 29.4549 33.8712 27.676C33.8712 25.8971 32.4499 24.455 30.6967 24.455C28.9435 24.455 27.5222 25.8971 27.5222 27.676C27.5222 29.4549 28.9435 30.897 30.6967 30.897Z" fill="#FDC305"/>
<path d="M34.9039 25.0563L32.2543 26.1815L33.2278 21.3457L26.8788 29.7288L29.5284 28.6036L28.5549 33.448L34.9039 25.0563ZM28.648 28.346L32.1696 23.6992L31.4839 27.1349L33.177 26.4305L29.63 31.0859L30.3157 27.6502L28.648 28.346Z" fill="#111111"/>
<path d="M27.4629 27.0833C27.9865 27.0833 28.411 26.6526 28.411 26.1213C28.411 25.59 27.9865 25.1593 27.4629 25.1593C26.9393 25.1593 26.5148 25.59 26.5148 26.1213C26.5148 26.6526 26.9393 27.0833 27.4629 27.0833Z" fill="#111111"/>
<path d="M32.9826 30.5706C33.3519 30.5706 33.6513 30.2668 33.6513 29.892C33.6513 29.5173 33.3519 29.2135 32.9826 29.2135C32.6132 29.2135 32.3138 29.5173 32.3138 29.892C32.3138 30.2668 32.6132 30.5706 32.9826 30.5706Z" fill="#111111"/>
<path d="M33.7953 28.7067C33.959 28.7067 34.0916 28.5721 34.0916 28.4061C34.0916 28.2401 33.959 28.1055 33.7953 28.1055C33.6317 28.1055 33.4991 28.2401 33.4991 28.4061C33.4991 28.5721 33.6317 28.7067 33.7953 28.7067Z" fill="#111111"/>
<path d="M38.8409 16.1749C37.3127 17.5727 35.8735 19.0673 34.5319 20.65C33.1955 22.2212 31.6873 23.6332 30.0365 24.8587C29.8503 24.4035 28.6566 23.5531 28.6566 23.5531C28.6566 23.5531 25.9984 21.7064 24.2544 20.2549C23.3117 19.4582 22.4235 18.5973 21.5962 17.6781L19.903 17.5836C22.3471 21.2058 25.9277 23.882 30.0619 25.1765C30.79 25.0563 32.8387 23.5703 34.371 22.3592C36.1839 20.795 37.8815 19.0984 39.4505 17.283C39.8722 16.7745 40.1992 16.1924 40.4156 15.5651C39.4505 15.8915 38.8409 16.1749 38.8409 16.1749Z" fill="#F06351"/>
<path d="M21.9517 22.05C21.9517 22.05 18.7263 20.8132 17.5411 20.4782C16.9846 20.2312 16.37 20.1508 15.77 20.2467C15.17 20.3426 14.6095 20.6107 14.1548 21.0193C13.6908 21.4314 13.3199 21.9401 13.0672 22.5108C12.8144 23.0814 12.6859 23.7006 12.6902 24.3262C12.8691 24.7254 13.0054 25.1429 13.0965 25.5716C13.1389 25.9839 12.0806 25.941 11.4034 25.941C10.7261 25.941 10.6245 24.7041 11.1579 23.2525C11.574 22.1363 12.0897 21.0611 12.6986 20.0401C8.08481 22.4795 0 28.1141 0 28.1141C2.31258 27.9726 4.63301 28.0415 6.93346 28.3202C11.378 28.7754 11.1663 32.3314 11.1663 32.3314C12.7296 31.8942 14.3227 31.5755 15.9326 31.378C17.7273 31.2577 17.8543 33.1989 17.8543 33.1989L18.303 36.5144C18.9843 35.7665 19.7356 35.0876 20.5464 34.4873C21.5915 33.6385 22.9222 33.2378 24.2544 33.3707V33.3707L21.9517 22.05Z" fill="#F06351"/>
</g>
<defs>
<clipPath id="clip0">
<rect width="171" height="51.0891" fill="white" transform="translate(0 -2)"/>
</clipPath>
</defs>
</svg>
