<?xml version="1.0" encoding="UTF-8"?><!DOCTYPE svg PUBLIC "-//W3C//DTD SVG 1.1//EN" "http://www.w3.org/Graphics/SVG/1.1/DTD/svg11.dtd"><svg xmlns="http://www.w3.org/2000/svg" xmlns:xlink="http://www.w3.org/1999/xlink"><defs>
<clipPath id="clip0">
<rect width="36" height="50" fill="white" transform="translate(7)"/>
</clipPath>

<clipPath id="clip0">
<rect width="67" height="28" fill="white" transform="translate(0 11)"/>
</clipPath>
</defs><symbol id="icon-cat-pro-mine" viewBox="0 0 50 53">
<circle cx="25" cy="28" r="25" fill="#68B738"/>
<g clip-path="url(#clip0)">
<path d="M35.2034 0H35.008C34.6778 0.187081 34.415 0.473924 34.2571 0.819588C33.968 1.37738 33.7453 1.96735 33.5937 2.57732C33.5612 2.76073 33.4688 2.92811 33.331 3.05315C33.1932 3.17818 33.0179 3.25377 32.8326 3.26804C32.2658 3.36597 31.7288 3.59243 31.2626 3.93012C30.7965 4.26781 30.4135 4.7078 30.1429 5.21649C29.7708 5.87697 29.4526 6.5665 29.1914 7.27835C28.4611 9.17526 27.9006 11.134 27.2114 13.0464C26.8874 13.9175 26.872 13.9175 25.8949 13.9175C24.7274 13.9175 24.8097 13.7371 24.7943 15.0258C24.7943 15.433 24.9177 15.6392 25.3497 15.6186C25.4834 15.6186 25.684 15.5515 25.7354 15.7268C25.7869 15.9021 25.612 15.9794 25.5091 16.0825C24.8994 16.7029 24.1276 17.1388 23.2823 17.3402C22.3051 17.6031 21.3074 17.8093 20.356 18.1289C17.9131 18.9485 15.6554 20.0928 13.8966 22.0309C12.8681 23.2347 12.0445 24.6001 11.4589 26.0722C9.57143 30.5258 8.656 35.2165 7.94629 39.9536C7.612 42.1753 7.37543 44.4072 7.19543 46.6546C7.10286 47.7577 7 48.8763 7 50H24.1411C24.1696 49.7731 24.1283 49.5429 24.0229 49.3402C23.858 48.9289 23.5901 48.5672 23.2451 48.29C22.9 48.0128 22.4895 47.8295 22.0531 47.7577C21.6931 47.6753 21.652 47.567 21.8731 47.2835C22.2338 46.801 22.5103 46.2607 22.6909 45.6856C23.5291 43.2062 23.8531 40.6186 24.2594 38.0567C24.4889 36.0999 25.0894 34.2051 26.0286 32.4742C26.7611 31.2002 27.7382 30.0842 28.9034 29.1907C29.3303 28.866 29.3457 28.866 29.4177 29.4175C29.4691 29.7835 29.4794 30.1598 29.5051 30.5309C29.6595 32.9662 29.6285 35.4097 29.4126 37.8402C29.2184 39.7242 29.1926 41.6217 29.3354 43.5103C29.5399 45.7029 29.9304 47.8739 30.5029 50H37.3429C37.2536 49.442 36.9973 48.9243 36.6078 48.5156C36.2184 48.1069 35.7143 47.8264 35.1623 47.7113C34.5177 47.6087 33.8587 47.6438 33.2286 47.8144C32.92 47.8866 32.7914 47.8144 32.7657 47.4794C32.5529 44.7505 32.7261 42.0051 33.28 39.3247C33.966 36.2304 34.4912 33.1025 34.8537 29.9536C34.9887 28.6819 35.3881 27.4528 36.0263 26.3454C36.6383 25.2526 37.1731 24.1186 37.7749 23.0206C38.0138 22.6214 38.1575 22.1723 38.195 21.7083C38.2325 21.2443 38.1626 20.7779 37.9909 20.3454C37.852 19.9794 37.7183 19.6082 37.5486 19.2577C37.0343 18.2526 36.52 17.2577 36.0469 16.2423C35.7949 15.7268 35.8514 15.6649 36.412 15.6495C37.2503 15.6495 37.2503 15.6495 37.2657 14.8041C37.2657 14.6907 37.2657 14.5773 37.2657 14.4639C37.2657 14.1082 37.132 13.9124 36.7514 13.9485C36.4943 13.9485 36.2371 13.9485 35.9697 13.9485C35.6149 13.9485 35.512 13.799 35.5994 13.433C35.7729 12.838 36.1142 12.306 36.5823 11.9009C37.0503 11.4958 37.6252 11.2349 38.2377 11.1495C39.3772 11.0505 40.5251 11.1252 41.6423 11.3711C41.7712 11.4118 41.9109 11.4001 42.0312 11.3383C42.1515 11.2766 42.2427 11.1699 42.2851 11.0412C42.4909 10.5258 42.7171 10.0103 42.9486 9.49484C43.001 9.40339 43.0242 9.29801 43.015 9.19293C43.0058 9.08785 42.9647 8.98812 42.8971 8.90722C41.2514 6.81443 39.4669 4.86082 37.0343 3.60825C36.9168 3.55754 36.8138 3.47814 36.7347 3.3773C36.6557 3.27646 36.6031 3.15738 36.5817 3.03093C36.444 2.29408 36.225 1.57487 35.9286 0.886598C35.7895 0.519904 35.5349 0.20865 35.2034 0V0Z" fill="black"/>
</g>

</symbol><symbol id="icon-cat-slim-mine" viewBox="0 0 67 50">
<circle cx="34.5" cy="25" r="25" fill="#68B738"/>
<g clip-path="url(#clip0)">
<path d="M61.55 13.9C62.1272 12.9815 62.8944 12.1973 63.8 11.6C64.3 11.25 64.6 11.25 64.9 11.9C65.3 12.85 65.65 13.85 65.35 14.9C65.2954 15.0781 65.2851 15.2668 65.3199 15.4497C65.3548 15.6327 65.4338 15.8044 65.55 15.95C65.85 16.35 66.1 16.75 66.35 17.1C66.6902 17.5319 66.9109 18.0456 66.9899 18.5897C67.0689 19.1339 67.0034 19.6892 66.8 20.2C66.6164 20.6959 66.5817 21.2346 66.7 21.75C66.7999 22.245 66.7999 22.755 66.7 23.25C66.6596 23.6207 66.5095 23.9709 66.2691 24.2559C66.0286 24.5409 65.7086 24.7478 65.35 24.85C64.7104 24.9717 64.1396 25.3284 63.75 25.85C63.7028 25.9268 63.6365 25.9901 63.5577 26.0339C63.4789 26.0777 63.3901 26.1005 63.3 26.1C62.7 26.2 61.2 24.85 61.2 24.25V23.95C61.25 22.15 61.15 22 59.5 21.25C59.1546 21.1282 58.8452 20.9219 58.6 20.65C58.3 20.25 57.9 20.3 57.45 20.45C57 20.6 56.75 20.9 56.8 21.4C56.9508 22.6104 57.0009 23.8313 56.95 25.05C56.9533 25.1891 56.9875 25.3257 57.05 25.45C58.6 27.7 59.2 30.35 59.95 32.9C60.55 34.85 61.65 35.9 63.65 36.05C63.97 36.0755 64.2876 36.1257 64.6 36.2C65.0109 36.266 65.3926 36.4538 65.6956 36.739C65.9987 37.0242 66.2092 37.3938 66.3 37.8C66.65 38.85 66.45 39.1 65.4 39.1H62.15C61.7292 39.1213 61.3167 38.9778 61 38.7C60.4939 38.2729 59.9191 37.9348 59.3 37.7C58.6155 37.4473 58.0231 36.9943 57.6 36.4C57.0143 35.5817 56.3439 34.8275 55.6 34.15C54.2 32.7 52.7 31.3 51.4 29.8C50.4103 28.7779 49.8395 27.4221 49.8 26C49.8 25.55 49.7 25.35 49.2 25.55C49.0503 25.645 48.8773 25.6969 48.7 25.7C47.3 25.7 46.6 26.55 46.1 27.8C45.65 28.85 45.05 29.85 44.5 30.9C44.1881 31.5572 44.0178 32.2727 44 33C44 34.2 44.3 34.6 45.4 35C46.1 35.25 46.75 35.5 47.1 36.2C47.5 37 47.4 37.2 46.55 37.25H43.15C42.954 37.2694 42.7568 37.2267 42.5864 37.1281C42.4159 37.0294 42.2807 36.8796 42.2 36.7L41.3 35.2C41.0347 34.8086 40.8648 34.3605 40.8041 33.8916C40.7433 33.4227 40.7932 32.9461 40.95 32.5C41.1664 31.6317 41.1835 30.7258 41 29.85C40.8739 29.24 40.8848 28.6097 41.0318 28.0045C41.1788 27.3993 41.4582 26.8342 41.85 26.35C42.15 26 42.15 25.85 41.65 25.75C39.6054 25.3157 37.6233 24.627 35.75 23.7C35.7367 23.7 35.724 23.6947 35.7146 23.6853C35.7052 23.676 35.7 23.6632 35.7 23.65C34.1 23.05 33.8 23.15 33.35 24.8C32.95 26.2 32.55 27.6 32.25 29.05C31.9 30.65 32.3 32.15 32.8 33.65C33 34.25 33.6 34.2 34.05 34.35C35.05 34.65 35.9 35.05 36.3 36.1C36.65 36.9 36.6 37 35.75 37C34.9 37 34.05 36.95 33.15 37C32.3905 37.0137 31.6493 36.7667 31.05 36.3C28.65 34.7 27.95 32.25 27.75 29.6C27.65 27.95 26.75 26.65 25.7 25.4C25.5 25.15 25.3 25.05 25 25.25C23.9267 25.8418 22.8062 26.3435 21.65 26.75C19.2371 27.602 17.1198 29.1292 15.55 31.15C14.9638 31.8875 14.5842 32.7675 14.45 33.7C14.3 34.6 14.55 35 15.45 35.25C16.35 35.5 16.8 36 16.9 36.95C16.95 37.35 16.8 37.55 16.4 37.55H12.35C12.2174 37.5406 12.0891 37.4993 11.9759 37.4297C11.8628 37.36 11.7681 37.2641 11.7 37.15C11.0719 36.3724 10.7358 35.3995 10.75 34.4C10.7237 32.6724 10.8745 30.9468 11.2 29.25C11.2667 28.7418 11.4564 28.2576 11.7527 27.8394C12.0489 27.4212 12.4427 27.0815 12.9 26.85C15.85 25.45 17.4 22.8 18.8 20.05C19.1 19.5 18.85 19.4 18.35 19.45C16.9506 19.6442 15.6248 20.1952 14.5 21.05C13.0271 22.1244 11.6396 23.3113 10.35 24.6C8.9748 25.9968 7.15133 26.8643 5.19998 27.05C1.54998 27.25 -0.150021 25.2 -2.12286e-05 21.9C0.03351 20.7748 0.457802 19.6964 1.19998 18.85C1.45799 18.5155 1.80985 18.2655 2.21061 18.1319C2.61138 17.9983 3.04287 17.9872 3.44998 18.1C4.19998 18.3 4.39998 18.7 4.09998 19.45C3.94998 19.75 3.74998 20 3.59998 20.3C3.38428 20.6065 3.21574 20.9435 3.09998 21.3C2.54998 22.8 3.29998 23.85 4.84998 24C6.49998 24.15 7.84998 23.45 9.09998 22.45C10.6059 21.2441 11.9503 19.8493 13.1 18.3C13.9596 17.1687 15.042 16.2256 16.2804 15.529C17.5188 14.8325 18.8868 14.3971 20.3 14.25C21.45 14.1 22.45 13.6 23.55 13.3C25.6072 12.6728 27.7495 12.3692 29.9 12.4C30.896 12.4415 31.8883 12.2533 32.8 11.85C35.25 10.85 37.8 10.85 40.35 11.35C42.35 11.75 44.35 12.25 46.3 12.75C47.4605 12.9662 48.6537 12.9321 49.8 12.65C51.9943 12.0937 54.2389 11.7587 56.5 11.65C57.9812 11.5779 59.4576 11.8697 60.8 12.5C61.8 12.95 61.8 12.95 61.55 13.9Z" fill="black"/>
</g>

</symbol><symbol id="icon-close" viewBox="0 0 18 18">
  <polygon points="18,1.3 16.7,0 9,7.7 1.3,0 0,1.3 7.7,9 0,16.7 1.3,18 9,10.3 16.7,18 18,16.7 10.3,9 "/>
</symbol><symbol id="icon-fb" viewBox="0 0 10 19"><path d="M7.1 19H2v-8.8H0V5.8h1.9c-.1-2 .2-3.4 1.1-4.4C3.8.5 5 .1 6.5 0H10v4.2H7.2c-.1.2-.2.8-.2 1.6h3v4.4H7.1V19zm-4-1h2.8V9.1h2.9V6.8H5.9v-.5c0-1.4 0-2.6.7-3.1l.1-.1h2.1V1H6.5c-1.2.1-2 .4-2.6 1-.8.8-1 2.3-.8 4.2l.1.6H1.1v2.3h2V18z"/></symbol><symbol id="icon-gift" viewBox="0 0 55.5 60">
  <path d="M52.3,12.2h-7c0.5-0.7,0.8-1.4,1.1-2.2c0.6-2,0.4-4.1-0.6-5.9c-1-1.8-2.6-3.1-4.6-3.7c-2-0.6-4.1-0.4-5.9,0.6
  c-3.6,2-6.2,6.1-7.6,9c-1.4-2.9-4-7.1-7.6-9c-3.8-2-8.5-0.6-10.5,3.1c-1.4,2.7-1.2,5.8,0.5,8.1h-7c-1.7,0-3.1,1.4-3.1,3.1v9.4
  c0,1.7,1.4,3.1,3.1,3.1H4v26.1c0,3.3,2.7,6,6,6h35.5c3.3,0,6-2.7,6-6V27.8h0.8c1.7,0,3.1-1.4,3.1-3.1v-9.4
  C55.5,13.6,54.1,12.2,52.3,12.2z M36.5,3c1.3-0.7,2.7-0.8,4.1-0.4C41.9,3,43,3.9,43.7,5.2c0.7,1.3,0.8,2.7,0.4,4.1
  c-0.4,1.2-1.1,2.2-2.2,2.9H29.4C30.5,9.6,33,5,36.5,3z M11.7,5.2C13.2,2.6,16.4,1.6,19,3c3.5,1.9,6,6.6,7.1,9.1H13.5
  C11.2,10.7,10.4,7.6,11.7,5.2z M26.5,27.8v13.7H6.4V27.8H26.5z M6.4,53.9v-10h20.2v13.7H10C8,57.6,6.4,55.9,6.4,53.9z M45.5,57.6
  H28.9V43.9h20.2v10C49.1,55.9,47.5,57.6,45.5,57.6z M49.1,41.5H28.9V27.8h20.2V41.5z M53.1,24.7c0,0.4-0.3,0.7-0.7,0.7h-2
  c0,0,0,0,0,0s0,0,0,0H27.7c0,0,0,0,0,0s0,0,0,0H5.2c0,0,0,0,0,0s0,0,0,0h-2c-0.4,0-0.7-0.3-0.7-0.7v-9.4c0-0.4,0.3-0.7,0.7-0.7h49.2
  c0.4,0,0.7,0.3,0.7,0.7V24.7z"/>
</symbol><symbol id="icon-htmlacademy" viewBox="0 0 60 60"><path d="M30.2 5h-.2l-19.7 2.1v36.2l19.7 11.7 19.7-11.7v-36.2l-19.5-2.1zm17 36.8l-17.2 10.2-17.2-10.2v-14.8l17.1 10.2v1.8l-11.7-7v1.8l11.8 7.1v1.9l-11.8-7v1.8l11.8 7 11.9-7.1v-7.6l5.3-3.2v15.1zm-.1-17l-4.7 2.8-2.2 1.3-10.3-6.1v1.8l8.8 5.3h-.1l-.2.1-1.3.7-7.3-4.3v1.8l5.8 3.4-1.4.9-4.3-2.6v1.8l2.9 1.7-2.9 1.7-17-10.1 17-10.2 17.2 10zm.1-1.8l-17.3-10.2-17.1 10.2v-13.6l17.2-1.8 17.2 1.8v13.6z"/></symbol><symbol id="icon-insta" viewBox="0 0 16.1 16"><style>.st0{fill:#231f20}</style><path class="st0" d="M11.8 1C13.6 1 15 2.4 15 4.2v7.7c0 1.7-1.4 3.1-3.1 3.1H4.2C2.4 15 1 13.6 1 11.8V4.2C1 2.4 2.4 1 4.2 1h7.6m0-1H4.2C1.9 0 0 1.9 0 4.2v7.7C0 14.1 1.9 16 4.2 16h7.7c2.3 0 4.2-1.9 4.2-4.2V4.2C16 1.9 14.1 0 11.8 0z"/><path class="st0" d="M8 4.9c1.7 0 3.1 1.4 3.1 3.1S9.7 11.1 8 11.1 4.9 9.7 4.9 8 6.3 4.9 8 4.9m0-1C5.7 3.9 3.9 5.7 3.9 8s1.8 4.1 4.1 4.1 4.1-1.8 4.1-4.1S10.3 3.9 8 3.9z"/><circle class="st0" cx="12.3" cy="3.7" r=".9"/></symbol><symbol id="icon-mail" viewBox="0 0 17 13">
  <path d="M15.6,11.6H1.4V5.8H0V13h17V5.8h-1.4V11.6z M0,0v2.3l8.5,7.1L17,2.3V0H0z M15.6,1.6L8.5,7.5L1.4,1.6V1.4h14.2L15.6,1.6z"/>
</symbol><symbol id="icon-mobile-menu" viewBox="0 0 24 18">
  <rect y="16" width="24" height="2"/>
  <rect y="8" width="24" height="2"/>
  <rect width="24" height="2"/>
</symbol><symbol id="icon-phone" viewBox="0 0 20 20">
  <path d="M17.9,9.4H9.4v1.2h8.5l-2.1,2.1l0.9,0.9l3.1-3.1c0.2-0.2,0.2-0.6,0-0.9l-3.1-3.1l-0.9,0.9L17.9,9.4z"/>
  <path d="M8.1,19.4v-6.2c0-0.3-0.3-0.6-0.6-0.6H4.4l0,0H3.1l0,0c0,0.7,0.6,1.2,1.2,1.2h2.5v5H3.1c-1,0.1-1.8-0.7-1.9-1.7
  c0-0.1,0-0.1,0-0.2V3.1c0-1,0.8-1.8,1.7-1.8c0.1,0,0.1,0,0.2,0h3.7v5H4.4c-0.7,0-1.2,0.6-1.2,1.2h4.4c0.3,0,0.6-0.3,0.6-0.6V0.6
  C8.1,0.3,7.8,0,7.5,0H3.1C1.5-0.1,0.1,1.2,0,2.9C0,3,0,3.1,0,3.1v13.7c-0.1,1.7,1.2,3.1,2.9,3.1c0.1,0,0.2,0,0.2,0h4.4
  C7.8,20,8.1,19.7,8.1,19.4z"/>
</symbol><symbol id="icon-plus-mobile" viewBox="0 0 30 30">
  <style type="text/css">
    .st0 {
      fill: #231F20;
    }
  </style>
  <polygon class="st0" points="30,14 16,14 16,0 14,0 14,14 0,14 0,16 14,16 14,30 16,30 16,16 30,16 "/>
</symbol><symbol id="icon-plus" viewBox="0 0 60 60">
  <style type="text/css">
    .st0 {
      fill: #231F20;
    }
  </style>
  <polygon class="st0" points="60,29.5 30.5,29.5 30.5,0 29.5,0 29.5,29.5 0,29.5 0,30.5 29.5,30.5 29.5,60 30.5,60 30.5,30.5
  60,30.5 "/>
</symbol><symbol id="icon-right-arrow-long" viewBox="0 0 24.2 11">
  <style type="text/css">
    .st0 {
      fill: #3F4242;
    }
  </style>
  <polygon class="st0" points="17.6,0 24.2,5.5 17.6,11 17.6,6.6 0,6.6 0,4.4 17.6,4.4 "/>
</symbol><symbol id="icon-right-arrow-verylong" viewBox="0 0 32 11">
  <style type="text/css">
    .st0 {
      fill: #3F4242;
    }
  </style>
  <polygon class="st0" points="25.4,0 32,5.5 25.4,11 25.4,6.6 0,6.6 0,4.4 25.4,4.4 "/>
</symbol><symbol id="icon-tick" viewBox="0 0 21.1 15.5">
  <polygon points="20.1,0 7.7,13.3 1,6.1 0,7.2 7.6,15.4 7.7,15.5 21,1.2 21.1,1.1 "/>
</symbol><symbol id="icon-vk" viewBox="0 0 22 12"><path d="M17.6 12c-.3 0-.9-.1-1.5-.5-.5-.3-.9-.7-1.3-1.2-.3-.3-.9-.9-1.1-.9-.2.1-.4.7-.3 1.2 0 .1 0 .6-.3.9-.3.3-.8.4-.9.4h-1.4c-.7 0-3.2-.2-5.4-2.3C2.5 7.1.2 2.2.1 2 0 1.6-.1 1.2.2.9s.8-.4 1-.4h3.1c.1 0 .4.1.7.3.3.2.4.5.5.6.7 1.5 1.5 2.8 2.6 4 .1-.4.2-1.4.1-2.3 0-.4-.1-.8-.2-1-.1-.1-.3-.2-.5-.2l-.6-.5c0-.5.5-.9.9-1.1.5-.2 1.3-.3 2.3-.3h.5c.9 0 1.2.1 1.6.1 1.2.3 1.2 1.3 1.1 2.5v1.6c0 .3 0 .8.1 1 .2-.1.6-.5 1.5-1.9.6-.9 1-1.9 1.1-2.1.1-.3.4-.7 1.2-.7h3.4c.7 0 1.2.2 1.3.7.2.5.1 1.3-1.7 3.5-.3.3-.5.6-.7.9-.5.4-.9 1-.9 1.1s.5.5.9.9c1.1.9 1.9 1.7 2.2 2.3.4.6.3 1 .2 1.3-.3.7-1.2.7-1.4.8h-2.8-.1zm-3.9-3.7c.7 0 1.2.6 1.8 1.2.4.4.7.8 1.1 1 .5.3 1 .3 1 .3h2.9c.1 0 .3-.1.4-.1 0 0 0-.1-.1-.1-.3-.5-1-1.3-2-2.1-.9-.7-1.3-1.1-1.4-1.7 0-.6.4-1.1 1.2-2.1.2-.2.4-.5.7-.8 1.1-1.4 1.4-2 1.5-2.3h-3.9c0 .4-.5 1.5-1.1 2.4-1.4 2.1-2 2.4-2.5 2.4-.1 0-.3 0-.4-.1-.7-.4-.7-1.4-.7-2.1V2.6c.1-1.3 0-1.3-.3-1.4-.3-.1-.5-.1-1.4-.1H10c-.5 0-1 0-1.4.1l.2.2c.4.5.4 1.5.4 1.7.1 1.3 0 2.9-.7 3.3-.1 0-.2.1-.4.1-.6 0-1.3-.7-2.5-2.5C5 2.9 4.5 1.8 4.5 1.8s0-.1-.1-.1-.2-.1-.2-.1h-3c.4.9 2.5 5 4.8 7.2 2 1.9 4.3 2 4.7 2h1.4s.2 0 .2-.1v-.1c0-.2 0-2 1.2-2.3h.2z"/></symbol></svg>
